<svg width="151" height="32" viewBox="0 0 151 32" fill="none" xmlns="http://www.w3.org/2000/svg">
<path d="M0 3V32H3.83333V9.70076L8.54286 14.9735L11.5 12.447L3.83333 3H0Z" fill="#241CCA"/>
<path d="M26.5 32V3H22.6667V25.2992L17.9571 20.0265L15 22.553L22.6667 32H26.5Z" fill="#262626"/>
<path d="M6.5 24.5L21 12.5L21 18.1075L13.0194 24.5L6.5 24.5Z" fill="#262626"/>
<path d="M12 18.5L8.5 14.6481L11.5484 12L12 18.5Z" fill="#241CCA"/>
<path d="M34.368 19V5.643H36.173L36.952 8.227V19H34.368ZM43.602 19L35.679 8.74L36.173 5.643L44.096 15.903L43.602 19ZM43.602 19L42.861 16.492V5.643H45.464V19H43.602ZM56.8367 19L52.9987 13.053H52.6187L47.4127 5.643H50.4717L54.2907 11.248H54.6707L59.8577 19H56.8367ZM47.1847 19L52.1817 11.856L54.0817 13.129L50.1107 19H47.1847ZM54.8037 12.654L52.9037 11.381L56.7037 5.643H59.6297L54.8037 12.654ZM64.1144 19V5.928H66.7174V19H64.1144ZM59.8584 7.942V5.643H70.9734V7.942H59.8584Z" fill="#241CCA"/>
<path d="M76.1717 19V5.643H78.7557V19H76.1717ZM78.0717 19V16.701H84.8737V19H78.0717ZM86.7293 19V5.643H89.3133V19H86.7293ZM88.6293 19V16.72H96.0203V19H88.6293ZM88.6293 13.281V11.077H95.3553V13.281H88.6293ZM88.6293 7.923V5.643H95.9253V7.923H88.6293ZM99.926 19V16.701H103.327C104.188 16.701 104.942 16.5237 105.588 16.169C106.234 15.8017 106.734 15.2887 107.089 14.63C107.456 13.9713 107.64 13.1923 107.64 12.293C107.64 11.419 107.456 10.659 107.089 10.013C106.722 9.35433 106.215 8.84767 105.569 8.493C104.923 8.12567 104.176 7.942 103.327 7.942H99.869V5.643H103.365C104.353 5.643 105.265 5.80767 106.101 6.137C106.95 6.46633 107.684 6.935 108.305 7.543C108.938 8.13833 109.426 8.84133 109.768 9.652C110.123 10.4627 110.3 11.3493 110.3 12.312C110.3 13.2747 110.123 14.1677 109.768 14.991C109.426 15.8017 108.945 16.511 108.324 17.119C107.703 17.7143 106.969 18.1767 106.12 18.506C105.284 18.8353 104.378 19 103.403 19H99.926ZM98.159 19V5.643H100.743V19H98.159ZM118.528 19.19C117.578 19.19 116.685 19.019 115.849 18.677C115.026 18.3223 114.298 17.8283 113.664 17.195C113.044 16.5617 112.556 15.8333 112.201 15.01C111.859 14.174 111.688 13.2747 111.688 12.312C111.688 11.3367 111.866 10.4373 112.22 9.614C112.575 8.778 113.069 8.04967 113.702 7.429C114.336 6.79567 115.077 6.308 115.925 5.966C116.774 5.61133 117.692 5.434 118.68 5.434C119.782 5.434 120.796 5.643 121.72 6.061C122.645 6.46633 123.411 7.04267 124.019 7.79L122.271 9.538C121.853 8.99333 121.334 8.57533 120.713 8.284C120.093 7.99267 119.409 7.847 118.661 7.847C117.813 7.847 117.059 8.037 116.4 8.417C115.754 8.78433 115.248 9.30367 114.88 9.975C114.513 10.6337 114.329 11.4063 114.329 12.293C114.329 13.1797 114.507 13.965 114.861 14.649C115.229 15.3203 115.723 15.846 116.343 16.226C116.977 16.606 117.699 16.796 118.509 16.796C119.345 16.796 120.061 16.644 120.656 16.34C121.252 16.0233 121.708 15.5673 122.024 14.972C122.341 14.364 122.499 13.623 122.499 12.749L124.19 13.908L118.357 13.851V11.609H125.159V11.97C125.159 13.566 124.874 14.9023 124.304 15.979C123.734 17.043 122.949 17.8473 121.948 18.392C120.96 18.924 119.82 19.19 118.528 19.19ZM127.141 19V5.643H129.725V19H127.141ZM129.041 19V16.72H136.432V19H129.041ZM129.041 13.281V11.077H135.767V13.281H129.041ZM129.041 7.923V5.643H136.337V7.923H129.041ZM140.471 13.414V11.4H143.568C144.201 11.4 144.689 11.2417 145.031 10.925C145.386 10.5957 145.563 10.146 145.563 9.576C145.563 9.05667 145.386 8.626 145.031 8.284C144.689 7.92933 144.201 7.752 143.568 7.752H140.471V5.643H143.796C144.657 5.643 145.411 5.814 146.057 6.156C146.716 6.48533 147.222 6.94133 147.577 7.524C147.944 8.10667 148.128 8.778 148.128 9.538C148.128 10.3233 147.944 11.0073 147.577 11.59C147.222 12.16 146.716 12.6097 146.057 12.939C145.398 13.2557 144.632 13.414 143.758 13.414H140.471ZM138.571 19V5.643H141.155V19H138.571ZM145.867 19L141.459 13.224L143.834 12.483L149.002 19H145.867Z" fill="#262626"/>
<path d="M33.738 30V23.754H34.584V30H33.738ZM34.314 30V29.226H37.662V30H34.314ZM40.3553 30.09C39.9293 30.09 39.5453 29.994 39.2033 29.802C38.8613 29.604 38.5913 29.337 38.3933 29.001C38.1953 28.665 38.0963 28.284 38.0963 27.858C38.0963 27.438 38.1923 27.06 38.3843 26.724C38.5823 26.388 38.8463 26.124 39.1763 25.932C39.5123 25.734 39.8873 25.635 40.3013 25.635C40.6973 25.635 41.0453 25.725 41.3453 25.905C41.6513 26.085 41.8883 26.334 42.0563 26.652C42.2303 26.97 42.3173 27.33 42.3173 27.732C42.3173 27.792 42.3143 27.858 42.3083 27.93C42.3023 27.996 42.2903 28.074 42.2723 28.164H38.6633V27.489H41.8403L41.5433 27.75C41.5433 27.462 41.4923 27.219 41.3903 27.021C41.2883 26.817 41.1443 26.661 40.9583 26.553C40.7723 26.439 40.5473 26.382 40.2833 26.382C40.0073 26.382 39.7643 26.442 39.5543 26.562C39.3443 26.682 39.1823 26.85 39.0683 27.066C38.9543 27.282 38.8973 27.537 38.8973 27.831C38.8973 28.131 38.9573 28.395 39.0773 28.623C39.1973 28.845 39.3683 29.019 39.5903 29.145C39.8123 29.265 40.0673 29.325 40.3553 29.325C40.5953 29.325 40.8143 29.283 41.0123 29.199C41.2163 29.115 41.3903 28.989 41.5343 28.821L42.0563 29.352C41.8523 29.592 41.6003 29.775 41.3003 29.901C41.0063 30.027 40.6913 30.09 40.3553 30.09ZM44.9734 31.881C44.5354 31.881 44.1454 31.8 43.8034 31.638C43.4674 31.476 43.1974 31.248 42.9934 30.954L43.5154 30.423C43.6894 30.645 43.8964 30.813 44.1364 30.927C44.3764 31.047 44.6614 31.107 44.9914 31.107C45.4294 31.107 45.7744 30.99 46.0264 30.756C46.2844 30.528 46.4134 30.219 46.4134 29.829V28.767L46.5574 27.804L46.4134 26.85V25.725H47.2234V29.829C47.2234 30.237 47.1274 30.594 46.9354 30.9C46.7494 31.206 46.4854 31.446 46.1434 31.62C45.8074 31.794 45.4174 31.881 44.9734 31.881ZM44.9734 29.928C44.5834 29.928 44.2324 29.835 43.9204 29.649C43.6144 29.463 43.3714 29.208 43.1914 28.884C43.0114 28.554 42.9214 28.185 42.9214 27.777C42.9214 27.369 43.0114 27.006 43.1914 26.688C43.3714 26.364 43.6144 26.109 43.9204 25.923C44.2324 25.731 44.5834 25.635 44.9734 25.635C45.3094 25.635 45.6064 25.701 45.8644 25.833C46.1224 25.965 46.3264 26.151 46.4764 26.391C46.6324 26.625 46.7164 26.901 46.7284 27.219V28.353C46.7104 28.665 46.6234 28.941 46.4674 29.181C46.3174 29.415 46.1134 29.598 45.8554 29.73C45.5974 29.862 45.3034 29.928 44.9734 29.928ZM45.1354 29.163C45.3994 29.163 45.6304 29.106 45.8284 28.992C46.0324 28.878 46.1884 28.719 46.2964 28.515C46.4044 28.305 46.4584 28.062 46.4584 27.786C46.4584 27.51 46.4014 27.27 46.2874 27.066C46.1794 26.856 46.0264 26.694 45.8284 26.58C45.6304 26.46 45.3964 26.4 45.1264 26.4C44.8564 26.4 44.6194 26.46 44.4154 26.58C44.2114 26.694 44.0494 26.856 43.9294 27.066C43.8154 27.27 43.7584 27.507 43.7584 27.777C43.7584 28.047 43.8154 28.287 43.9294 28.497C44.0494 28.707 44.2114 28.872 44.4154 28.992C44.6254 29.106 44.8654 29.163 45.1354 29.163ZM50.2304 30.09C49.8404 30.09 49.4864 29.994 49.1684 29.802C48.8504 29.604 48.5984 29.337 48.4124 29.001C48.2324 28.665 48.1424 28.287 48.1424 27.867C48.1424 27.447 48.2324 27.069 48.4124 26.733C48.5984 26.397 48.8474 26.13 49.1594 25.932C49.4774 25.734 49.8344 25.635 50.2304 25.635C50.5544 25.635 50.8424 25.704 51.0944 25.842C51.3524 25.974 51.5594 26.16 51.7154 26.4C51.8714 26.634 51.9584 26.907 51.9764 27.219V28.506C51.9584 28.812 51.8714 29.085 51.7154 29.325C51.5654 29.565 51.3614 29.754 51.1034 29.892C50.8514 30.024 50.5604 30.09 50.2304 30.09ZM50.3654 29.325C50.7674 29.325 51.0914 29.19 51.3374 28.92C51.5834 28.644 51.7064 28.293 51.7064 27.867C51.7064 27.573 51.6494 27.318 51.5354 27.102C51.4274 26.88 51.2714 26.709 51.0674 26.589C50.8634 26.463 50.6264 26.4 50.3564 26.4C50.0864 26.4 49.8464 26.463 49.6364 26.589C49.4324 26.715 49.2704 26.889 49.1504 27.111C49.0364 27.327 48.9794 27.576 48.9794 27.858C48.9794 28.146 49.0364 28.401 49.1504 28.623C49.2704 28.839 49.4354 29.01 49.6454 29.136C49.8554 29.262 50.0954 29.325 50.3654 29.325ZM51.6524 30V28.848L51.8054 27.804L51.6524 26.769V25.725H52.4714V30H51.6524ZM53.6506 30V23.574H54.4606V30H53.6506ZM56.9479 30L59.5039 23.754H60.1159L62.6629 30H61.7449L59.6479 24.717H59.9629L57.8479 30H56.9479ZM58.1629 28.587V27.849H61.4479V28.587H58.1629ZM65.2101 30.09C64.7901 30.09 64.4091 29.991 64.0671 29.793C63.7311 29.595 63.4641 29.328 63.2661 28.992C63.0741 28.65 62.9781 28.272 62.9781 27.858C62.9781 27.438 63.0741 27.06 63.2661 26.724C63.4641 26.388 63.7311 26.124 64.0671 25.932C64.4091 25.734 64.7901 25.635 65.2101 25.635C65.5401 25.635 65.8461 25.698 66.1281 25.824C66.4101 25.944 66.6531 26.121 66.8571 26.355L66.3171 26.895C66.1851 26.739 66.0231 26.622 65.8311 26.544C65.6451 26.46 65.4381 26.418 65.2101 26.418C64.9401 26.418 64.7001 26.481 64.4901 26.607C64.2801 26.727 64.1151 26.895 63.9951 27.111C63.8751 27.327 63.8151 27.576 63.8151 27.858C63.8151 28.14 63.8751 28.389 63.9951 28.605C64.1151 28.821 64.2801 28.992 64.4901 29.118C64.7001 29.244 64.9401 29.307 65.2101 29.307C65.4381 29.307 65.6451 29.268 65.8311 29.19C66.0231 29.106 66.1881 28.986 66.3261 28.83L66.8571 29.37C66.6591 29.598 66.4161 29.775 66.1281 29.901C65.8461 30.027 65.5401 30.09 65.2101 30.09ZM69.5255 30.09C69.1055 30.09 68.7245 29.991 68.3825 29.793C68.0465 29.595 67.7795 29.328 67.5815 28.992C67.3895 28.65 67.2935 28.272 67.2935 27.858C67.2935 27.438 67.3895 27.06 67.5815 26.724C67.7795 26.388 68.0465 26.124 68.3825 25.932C68.7245 25.734 69.1055 25.635 69.5255 25.635C69.8555 25.635 70.1615 25.698 70.4435 25.824C70.7255 25.944 70.9685 26.121 71.1725 26.355L70.6325 26.895C70.5005 26.739 70.3385 26.622 70.1465 26.544C69.9605 26.46 69.7535 26.418 69.5255 26.418C69.2555 26.418 69.0155 26.481 68.8055 26.607C68.5955 26.727 68.4305 26.895 68.3105 27.111C68.1905 27.327 68.1305 27.576 68.1305 27.858C68.1305 28.14 68.1905 28.389 68.3105 28.605C68.4305 28.821 68.5955 28.992 68.8055 29.118C69.0155 29.244 69.2555 29.307 69.5255 29.307C69.7535 29.307 69.9605 29.268 70.1465 29.19C70.3385 29.106 70.5035 28.986 70.6415 28.83L71.1725 29.37C70.9745 29.598 70.7315 29.775 70.4435 29.901C70.1615 30.027 69.8555 30.09 69.5255 30.09ZM73.8409 30.09C73.4209 30.09 73.0429 29.991 72.7069 29.793C72.3709 29.595 72.1039 29.328 71.9059 28.992C71.7079 28.65 71.6089 28.269 71.6089 27.849C71.6089 27.435 71.7079 27.063 71.9059 26.733C72.1039 26.397 72.3709 26.13 72.7069 25.932C73.0429 25.734 73.4209 25.635 73.8409 25.635C74.2549 25.635 74.6299 25.734 74.9659 25.932C75.3079 26.124 75.5779 26.388 75.7759 26.724C75.9739 27.06 76.0729 27.435 76.0729 27.849C76.0729 28.269 75.9739 28.65 75.7759 28.992C75.5779 29.328 75.3079 29.595 74.9659 29.793C74.6299 29.991 74.2549 30.09 73.8409 30.09ZM73.8409 29.307C74.1109 29.307 74.3509 29.244 74.5609 29.118C74.7709 28.992 74.9359 28.821 75.0559 28.605C75.1759 28.383 75.2359 28.131 75.2359 27.849C75.2359 27.573 75.1729 27.327 75.0469 27.111C74.9269 26.895 74.7619 26.727 74.5519 26.607C74.3479 26.481 74.1109 26.418 73.8409 26.418C73.5709 26.418 73.3309 26.481 73.1209 26.607C72.9109 26.727 72.7459 26.895 72.6259 27.111C72.5059 27.327 72.4459 27.573 72.4459 27.849C72.4459 28.131 72.5059 28.383 72.6259 28.605C72.7459 28.821 72.9109 28.992 73.1209 29.118C73.3309 29.244 73.5709 29.307 73.8409 29.307ZM78.7046 30.09C78.3566 30.09 78.0416 30.012 77.7596 29.856C77.4836 29.694 77.2676 29.472 77.1116 29.19C76.9556 28.908 76.8776 28.581 76.8776 28.209V25.725H77.6876V28.173C77.6876 28.407 77.7266 28.611 77.8046 28.785C77.8886 28.953 78.0086 29.082 78.1646 29.172C78.3206 29.262 78.5036 29.307 78.7136 29.307C79.0316 29.307 79.2806 29.208 79.4606 29.01C79.6406 28.806 79.7306 28.527 79.7306 28.173V25.725H80.5406V28.209C80.5406 28.581 80.4626 28.908 80.3066 29.19C80.1506 29.472 79.9346 29.694 79.6586 29.856C79.3886 30.012 79.0706 30.09 78.7046 30.09ZM84.6502 30V27.507C84.6502 27.183 84.5482 26.916 84.3442 26.706C84.1402 26.496 83.8762 26.391 83.5522 26.391C83.3362 26.391 83.1442 26.439 82.9762 26.535C82.8082 26.631 82.6762 26.763 82.5802 26.931C82.4842 27.099 82.4362 27.291 82.4362 27.507L82.1032 27.318C82.1032 26.994 82.1752 26.706 82.3192 26.454C82.4632 26.202 82.6642 26.004 82.9222 25.86C83.1802 25.71 83.4712 25.635 83.7952 25.635C84.1192 25.635 84.4042 25.716 84.6502 25.878C84.9022 26.04 85.1002 26.253 85.2442 26.517C85.3882 26.775 85.4602 27.051 85.4602 27.345V30H84.6502ZM81.6262 30V25.725H82.4362V30H81.6262ZM87.1612 30V23.934H87.9712V30H87.1612ZM86.1082 26.463V25.725H89.0242V26.463H86.1082ZM89.8266 30V25.725H90.6366V30H89.8266ZM90.2316 24.87C90.0816 24.87 89.9586 24.822 89.8626 24.726C89.7666 24.624 89.7186 24.498 89.7186 24.348C89.7186 24.204 89.7666 24.084 89.8626 23.988C89.9586 23.886 90.0816 23.835 90.2316 23.835C90.3816 23.835 90.5046 23.886 90.6006 23.988C90.6966 24.084 90.7446 24.204 90.7446 24.348C90.7446 24.498 90.6966 24.624 90.6006 24.726C90.5046 24.822 90.3816 24.87 90.2316 24.87ZM94.8543 30V27.507C94.8543 27.183 94.7523 26.916 94.5483 26.706C94.3443 26.496 94.0803 26.391 93.7563 26.391C93.5403 26.391 93.3483 26.439 93.1803 26.535C93.0123 26.631 92.8803 26.763 92.7843 26.931C92.6883 27.099 92.6403 27.291 92.6403 27.507L92.3073 27.318C92.3073 26.994 92.3793 26.706 92.5233 26.454C92.6673 26.202 92.8683 26.004 93.1263 25.86C93.3843 25.71 93.6753 25.635 93.9993 25.635C94.3233 25.635 94.6083 25.716 94.8543 25.878C95.1063 26.04 95.3043 26.253 95.4483 26.517C95.5923 26.775 95.6643 27.051 95.6643 27.345V30H94.8543ZM91.8303 30V25.725H92.6403V30H91.8303ZM98.534 31.881C98.096 31.881 97.706 31.8 97.364 31.638C97.028 31.476 96.758 31.248 96.554 30.954L97.076 30.423C97.25 30.645 97.457 30.813 97.697 30.927C97.937 31.047 98.222 31.107 98.552 31.107C98.99 31.107 99.335 30.99 99.587 30.756C99.845 30.528 99.974 30.219 99.974 29.829V28.767L100.118 27.804L99.974 26.85V25.725H100.784V29.829C100.784 30.237 100.688 30.594 100.496 30.9C100.31 31.206 100.046 31.446 99.704 31.62C99.368 31.794 98.978 31.881 98.534 31.881ZM98.534 29.928C98.144 29.928 97.793 29.835 97.481 29.649C97.175 29.463 96.932 29.208 96.752 28.884C96.572 28.554 96.482 28.185 96.482 27.777C96.482 27.369 96.572 27.006 96.752 26.688C96.932 26.364 97.175 26.109 97.481 25.923C97.793 25.731 98.144 25.635 98.534 25.635C98.87 25.635 99.167 25.701 99.425 25.833C99.683 25.965 99.887 26.151 100.037 26.391C100.193 26.625 100.277 26.901 100.289 27.219V28.353C100.271 28.665 100.184 28.941 100.028 29.181C99.878 29.415 99.674 29.598 99.416 29.73C99.158 29.862 98.864 29.928 98.534 29.928ZM98.696 29.163C98.96 29.163 99.191 29.106 99.389 28.992C99.593 28.878 99.749 28.719 99.857 28.515C99.965 28.305 100.019 28.062 100.019 27.786C100.019 27.51 99.962 27.27 99.848 27.066C99.74 26.856 99.587 26.694 99.389 26.58C99.191 26.46 98.957 26.4 98.687 26.4C98.417 26.4 98.18 26.46 97.976 26.58C97.772 26.694 97.61 26.856 97.49 27.066C97.376 27.27 97.319 27.507 97.319 27.777C97.319 28.047 97.376 28.287 97.49 28.497C97.61 28.707 97.772 28.872 97.976 28.992C98.186 29.106 98.426 29.163 98.696 29.163ZM103.275 30L105.831 23.754H106.443L108.99 30H108.072L105.975 24.717H106.29L104.175 30H103.275ZM104.49 28.587V27.849H107.775V28.587H104.49ZM112.107 30.09C111.783 30.09 111.489 30.024 111.225 29.892C110.967 29.754 110.76 29.565 110.604 29.325C110.448 29.085 110.361 28.812 110.343 28.506V27.219C110.361 26.907 110.448 26.634 110.604 26.4C110.766 26.16 110.976 25.974 111.234 25.842C111.498 25.704 111.789 25.635 112.107 25.635C112.497 25.635 112.848 25.734 113.16 25.932C113.478 26.13 113.727 26.397 113.907 26.733C114.087 27.069 114.177 27.447 114.177 27.867C114.177 28.287 114.087 28.665 113.907 29.001C113.727 29.337 113.478 29.604 113.16 29.802C112.848 29.994 112.497 30.09 112.107 30.09ZM111.972 29.325C112.242 29.325 112.479 29.262 112.683 29.136C112.887 29.01 113.049 28.839 113.169 28.623C113.289 28.401 113.349 28.146 113.349 27.858C113.349 27.576 113.289 27.324 113.169 27.102C113.049 26.88 112.887 26.709 112.683 26.589C112.479 26.463 112.245 26.4 111.981 26.4C111.711 26.4 111.474 26.463 111.27 26.589C111.066 26.709 110.907 26.88 110.793 27.102C110.679 27.324 110.622 27.579 110.622 27.867C110.622 28.149 110.676 28.401 110.784 28.623C110.898 28.839 111.057 29.01 111.261 29.136C111.471 29.262 111.708 29.325 111.972 29.325ZM109.857 31.791V25.725H110.667V26.85L110.514 27.885L110.667 28.929V31.791H109.857ZM117.345 30.09C117.021 30.09 116.727 30.024 116.463 29.892C116.205 29.754 115.998 29.565 115.842 29.325C115.686 29.085 115.599 28.812 115.581 28.506V27.219C115.599 26.907 115.686 26.634 115.842 26.4C116.004 26.16 116.214 25.974 116.472 25.842C116.736 25.704 117.027 25.635 117.345 25.635C117.735 25.635 118.086 25.734 118.398 25.932C118.716 26.13 118.965 26.397 119.145 26.733C119.325 27.069 119.415 27.447 119.415 27.867C119.415 28.287 119.325 28.665 119.145 29.001C118.965 29.337 118.716 29.604 118.398 29.802C118.086 29.994 117.735 30.09 117.345 30.09ZM117.21 29.325C117.48 29.325 117.717 29.262 117.921 29.136C118.125 29.01 118.287 28.839 118.407 28.623C118.527 28.401 118.587 28.146 118.587 27.858C118.587 27.576 118.527 27.324 118.407 27.102C118.287 26.88 118.125 26.709 117.921 26.589C117.717 26.463 117.483 26.4 117.219 26.4C116.949 26.4 116.712 26.463 116.508 26.589C116.304 26.709 116.145 26.88 116.031 27.102C115.917 27.324 115.86 27.579 115.86 27.867C115.86 28.149 115.914 28.401 116.022 28.623C116.136 28.839 116.295 29.01 116.499 29.136C116.709 29.262 116.946 29.325 117.21 29.325ZM115.095 31.791V25.725H115.905V26.85L115.752 27.885L115.905 28.929V31.791H115.095Z" fill="#262626"/>
</svg>
